<svg width="48" height="48" viewBox="0 0 48 48" fill="none" xmlns="http://www.w3.org/2000/svg" role="img" aria-label="Cryptocurrencies">
  <circle cx="24" cy="24" r="22" fill="#E8EBF0"/>
  <circle cx="24" cy="24" r="12" fill="#0E1F3D"/>
  <path fill="#fff" d="M27.2 17.8c.9.7 1.4 1.8 1.3 3-.1 1.8-1.4 2.8-3.2 3v.1c1.5.2 2.6 1.1 2.8 2.7.3 2-1 3.4-3.4 3.6l-.4 2h-2l.4-1.9h-2.2l-.4 1.9h-2l.4-1.9c-.5-.1-1-.2-1.5-.4l.7-2.2c.6.2 1.2.4 1.9.4h2.9c1.2 0 1.8-.5 1.7-1.2 0-.6-.5-1-1.6-1h-2.9c-1.8 0-3-1-3.1-2.6-.1-1.3.5-2.3 1.6-2.9l-.4-1.9h2l.4 1.9h2.1l.4-1.9h2l-.4 1.9zm-4.3 5.2h3c1.2 0 1.9-.5 1.8-1.3 0-.8-.6-1.2-1.8-1.2h-3v2.5zm-.3 5.1h3.3c1.3 0 2-.5 1.9-1.3 0-.8-.7-1.2-2-1.2h-3.2v2.5z"/>
</svg>
