<svg width="240" height="180" viewBox="0 0 240 180" fill="none" xmlns="http://www.w3.org/2000/svg" role="img" aria-label="ActsTrade">
  <rect x="24" y="28" width="192" height="120" rx="8" fill="#0E1F3D"/>
  <rect x="32" y="36" width="176" height="96" rx="4" fill="#1a2f4d"/>
  <rect x="32" y="36" width="176" height="14" fill="#2A3F5C"/>
  <circle cx="44" cy="43" r="3" fill="#e57373"/>
  <circle cx="54" cy="43" r="3" fill="#ffb74d"/>
  <circle cx="64" cy="43" r="3" fill="#81c784"/>
  <rect x="40" y="58" width="48" height="64" rx="3" fill="#0E1F3D"/>
  <rect x="44" y="64" width="16" height="4" rx="1" fill="#4A5D73"/>
  <rect x="44" y="72" width="28" height="3" rx="1" fill="#3D5266"/>
  <rect x="44" y="80" width="24" height="3" rx="1" fill="#3D5266"/>
  <rect x="44" y="88" width="32" height="3" rx="1" fill="#3D5266"/>
  <rect x="96" y="58" width="104" height="64" rx="3" fill="#0a1628"/>
  <path d="M104 104l18-22 12 10 14-18 28 30" stroke="#4fc3f7" stroke-width="2" stroke-linecap="round" stroke-linejoin="round"/>
  <path d="M104 104V72h72" stroke="#4A5D73" stroke-width="1" opacity="0.5"/>
  <rect x="96" y="128" width="104" height="8" fill="#2A3F5C"/>
  <path d="M120 156h48" stroke="#4A5D73" stroke-width="4" stroke-linecap="round"/>
  <path d="M96 156h16" stroke="#0E1F3D" stroke-width="6" stroke-linecap="round"/>
</svg>
