<svg width="240" height="180" viewBox="0 0 240 180" fill="none" xmlns="http://www.w3.org/2000/svg" role="img" aria-label="KVB App">
  <rect x="70" y="16" width="100" height="148" rx="14" fill="#0E1F3D"/>
  <rect x="78" y="28" width="84" height="112" rx="6" fill="#fff"/>
  <rect x="108" y="22" width="24" height="4" rx="2" fill="#2A3F5C"/>
  <path d="M86 44h68v48H86z" fill="#E8EBF0"/>
  <path d="M90 78l14-12 10 8 16-18 20 22" stroke="#0E1F3D" stroke-width="2" stroke-linecap="round" stroke-linejoin="round"/>
  <rect x="86" y="98" width="30" height="6" rx="2" fill="#0E1F3D"/>
  <rect x="120" y="98" width="34" height="6" rx="2" fill="#2A3F5C"/>
  <rect x="86" y="110" width="68" height="22" rx="4" fill="#E8EBF0"/>
  <rect x="90" y="116" width="24" height="4" rx="1" fill="#4A5D73"/>
  <rect x="90" y="124" width="40" height="4" rx="1" fill="#C9C9C9"/>
  <circle cx="120" cy="154" r="5" stroke="#4A5D73" stroke-width="2"/>
</svg>
