<svg width="240" height="180" viewBox="0 0 240 180" fill="none" xmlns="http://www.w3.org/2000/svg" role="img" aria-label="MetaTrader 4">
  <rect x="20" y="24" width="200" height="132" rx="10" fill="#0E1F3D"/>
  <rect x="28" y="32" width="184" height="108" rx="6" fill="#fff"/>
  <rect x="28" y="32" width="184" height="20" fill="#E8EBF0"/>
  <text x="40" y="46" fill="#0E1F3D" font-family="Roboto,Arial,sans-serif" font-size="11" font-weight="700">MetaTrader 4</text>
  <rect x="36" y="60" width="56" height="72" fill="#F5F5F5"/>
  <rect x="40" y="66" width="20" height="3" rx="1" fill="#0E1F3D"/>
  <rect x="40" y="74" width="32" height="2" rx="1" fill="#C9C9C9"/>
  <rect x="40" y="80" width="28" height="2" rx="1" fill="#C9C9C9"/>
  <rect x="40" y="86" width="36" height="2" rx="1" fill="#C9C9C9"/>
  <rect x="40" y="92" width="24" height="2" rx="1" fill="#C9C9C9"/>
  <rect x="100" y="60" width="104" height="72" fill="#FAFAFA"/>
  <path d="M108 120l16-28 12 16 10-14 20 26 16-20" stroke="#0E1F3D" stroke-width="2" fill="none" stroke-linecap="round" stroke-linejoin="round"/>
  <path d="M108 120V68h96" stroke="#E0E0E0" stroke-width="1"/>
  <rect x="36" y="140" width="168" height="8" rx="2" fill="#E8EBF0"/>
  <text x="188" y="46" fill="#2A3F5C" font-family="Roboto,Arial,sans-serif" font-size="16" font-weight="700">4</text>
</svg>
